HIERARCHY
ROOT joint_Root
{
  OFFSET 0 0 0
  CHANNELS 6 Xposition Yposition Zposition Zrotation Xrotation Yrotation
  JOINT Hips
  {
    OFFSET 0.0408292 93.9915 0.0639531
    CHANNELS 6 Xposition Yposition Zposition Zrotation Xrotation Yrotation
    JOINT Spine
    {
      OFFSET 15.7357 0 0
      CHANNELS 6 Xposition Yposition Zposition Zrotation Xrotation Yrotation
      JOINT Chest
      {
        OFFSET 8.98455 -0.406207 0
        CHANNELS 6 Xposition Yposition Zposition Zrotation Xrotation Yrotation
        JOINT Neck
        {
          OFFSET 16.3773 0 0
          CHANNELS 6 Xposition Yposition Zposition Zrotation Xrotation Yrotation
          JOINT Head
          {
            OFFSET 6.45672 0 0
            CHANNELS 6 Xposition Yposition Zposition Zrotation Xrotation Yrotation
            End Site
            {
              OFFSET 10 0 0
            }
          }
        }
        JOINT Shoulder_L
        {
          OFFSET 12.9942 -0.242716 4.98039
          CHANNELS 6 Xposition Yposition Zposition Zrotation Xrotation Yrotation
          JOINT UpperArm_L
          {
            OFFSET 5.34809 0 0
            CHANNELS 6 Xposition Yposition Zposition Zrotation Xrotation Yrotation
            JOINT LowerArm_L
            {
              OFFSET 24.3286 1.87007e-05 0
              CHANNELS 6 Xposition Yposition Zposition Zrotation Xrotation Yrotation
              JOINT Hand_L
              {
                OFFSET 22.2916 0 0
                CHANNELS 6 Xposition Yposition Zposition Zrotation Xrotation Yrotation
                End Site
                {
                  OFFSET 5 0 0
                }
              }
            }
          }
        }
        JOINT Shoulder_R
        {
          OFFSET 12.9945 -0.242716 -4.98039
          CHANNELS 6 Xposition Yposition Zposition Zrotation Xrotation Yrotation
          JOINT UpperArm_R
          {
            OFFSET -5.34813 0 0
            CHANNELS 6 Xposition Yposition Zposition Zrotation Xrotation Yrotation
            JOINT LowerArm_R
            {
              OFFSET -24.3289 0.000322201 0
              CHANNELS 6 Xposition Yposition Zposition Zrotation Xrotation Yrotation
              JOINT Hand_R
              {
                OFFSET -22.2915 -0.000108084 0
                CHANNELS 6 Xposition Yposition Zposition Zrotation Xrotation Yrotation
                End Site
                {
                  OFFSET -5 0 0
                }
              }
            }
          }
        }
      }
    }
    JOINT UpperLeg_L
    {
      OFFSET -2.19248 -6.46944 0
      CHANNELS 6 Xposition Yposition Zposition Zrotation Xrotation Yrotation
      JOINT LowerLeg_L
      {
        OFFSET 39.0811 0 -1.23785e-05
        CHANNELS 6 Xposition Yposition Zposition Zrotation Xrotation Yrotation
        JOINT Foot_L
        {
          OFFSET 40.9854 0 -1.26872e-05
          CHANNELS 6 Xposition Yposition Zposition Zrotation Xrotation Yrotation
          JOINT Toes_L
          {
            OFFSET 11.7543 0 0
            CHANNELS 6 Xposition Yposition Zposition Zrotation Xrotation Yrotation
            End Site
            {
              OFFSET 5 0 0
            }
          }
        }
      }
    }
    JOINT UpperLeg_R
    {
      OFFSET -2.19251 6.46944 0
      CHANNELS 6 Xposition Yposition Zposition Zrotation Xrotation Yrotation
      JOINT LowerLeg_R
      {
        OFFSET -39.0811 0 0
        CHANNELS 6 Xposition Yposition Zposition Zrotation Xrotation Yrotation
        JOINT Foot_R
        {
          OFFSET -40.9854 0 0
          CHANNELS 6 Xposition Yposition Zposition Zrotation Xrotation Yrotation
          JOINT Toes_R
          {
            OFFSET -11.7543 0 0
            CHANNELS 6 Xposition Yposition Zposition Zrotation Xrotation Yrotation
            End Site
            {
              OFFSET -5 0 0
            }
          }
        }
      }
    }
  }
}
MOTION
Frames:	7
Frame Time:	0.0333333
0 0 -60 0 0 -0 -1.12552 94.1218 0.0551416 91.199 -0.415587 0.672379 15.7357 5.1072e-06 -5.51765e-07 78.6221 83.8059 -81.1187 8.98455 -0.406207 -4.3199e-07 2.52069 -1.0543 -0.0989485 16.3773 -1.3905e-06 -6.99897e-07 -7.1208 1.00811 -0.627736 6.45672 -1.25837e-06 -1.02172e-07 -13.4018 1.72853 -1.89886 12.9942 -0.242716 4.98039 -89.6931 9.60765 -88.3305 5.34809 -7.22636e-06 -6.2814e-07 -85.5512 -3.20702 21.6504 24.3286 1.87007e-05 4.90208e-06 1.8929e-16 -1.26825e-13 -0.00428964 22.2916 -9.88446e-07 4.63217e-06 42.9613 71.5657 -61.8867 12.9945 -0.242716 -4.98039 89.8844 11.0288 -85.8528 -5.34813 -1.25947e-06 -3.79883e-06 -106.377 51.6133 36.5327 -24.3289 0.000322201 -8.65921e-06 0.000904081 -0.000160217 -14.6771 -22.2915 -0.000108084 -4.47941e-06 25.7233 47.3868 -49.6929 -2.19248 -6.46944 -1.22534e-07 -177.555 -2.78386 -17.3863 39.0811 -6.73843e-06 -1.23785e-05 -5.74854e-13 -3.53174e-06 45.3699 40.9854 -6.48686e-06 -1.26872e-05 -4.1481 -6.7508 -56.2107 11.7543 -2.30145e-07 3.05095e-06 -0.892003 -1.89173 -20.4466 -2.19251 6.46944 -1.45247e-06 -176.309 0.32578 172.971 -39.0811 -7.77156e-16 -7.10543e-15 8.5172e-16 0 10.0609 -40.9854 7.72618e-06 5.99936e-06 7.46023 7.87926 -52.4893 -11.7543 -5.6619e-06 -5.58687e-06 -0.633851 -3.75796 -17.0121 
0 0 -64 0 0 -0 -0.99319 93.7489 1.0675 90.9221 0.306319 1.20441 15.7357 5.1072e-06 -5.51765e-07 75.9347 84.5758 -77.7948 8.98455 -0.406207 -4.3199e-07 2.41875 -1.20571 0.11492 16.3773 -1.3905e-06 -6.99897e-07 -6.39977 1.01273 -0.659394 6.45672 -1.25837e-06 -1.02172e-07 -12.8481 1.79291 -2.12321 12.9942 -0.242716 4.98039 -89.7297 9.86946 -88.0902 5.34809 -7.22636e-06 -6.2814e-07 -85.461 -3.09399 21.6522 24.3286 1.87007e-05 4.90208e-06 1.97824e-16 -9.02482e-14 -0.000609813 22.2916 -9.88446e-07 4.63217e-06 46.344 72.3782 -65.2127 12.9945 -0.242716 -4.98039 89.8249 11.0103 -85.5202 -5.34813 -1.25947e-06 -3.79883e-06 -106.206 51.7861 36.628 -24.3289 0.000322201 -8.65921e-06 0.000904015 -0.000160318 -14.6905 -22.2915 -0.000108084 -4.47941e-06 26.1477 47.7633 -50.0574 -2.19248 -6.46944 -1.22534e-07 -177.446 -3.1384 -11.692 39.0811 -6.73843e-06 -1.23785e-05 -1.83441e-13 -3.82094e-06 47.9461 40.9854 -6.48686e-06 -1.26872e-05 -6.85527 -0.452326 -53.0736 11.7543 -2.30145e-07 3.05095e-06 -0.755469 -1.46963 -20.1597 -2.19251 6.46944 -1.45247e-06 -176.22 -0.60426 170.58 -39.0811 4.44089e-16 -7.10543e-15 7.2948e-16 -1.98785e-16 11.7014 -40.9854 7.72618e-06 5.99936e-06 6.98858 6.60317 -51.6361 -11.7543 -5.6619e-06 -5.58687e-06 -0.650819 -3.87199 -17.0662 
0 0 -68 0 0 -0 -0.816554 93.221 1.85425 90.5733 0.621803 1.67074 15.7357 5.1072e-06 -5.51765e-07 73.0819 85.2284 -74.3613 8.98455 -0.406207 -4.3199e-07 2.32344 -1.3149 0.337464 16.3773 -1.3905e-06 -6.99897e-07 -5.75786 1.07141 -0.546744 6.45672 -1.25837e-06 -1.02172e-07 -12.3461 1.90741 -2.14458 12.9942 -0.242716 4.98039 -89.7601 9.94391 -87.9068 5.34809 -7.22636e-06 -6.2814e-07 -85.5563 -3.10805 21.7855 24.3286 1.87007e-05 4.90208e-06 -1.60467e-15 -1.32788e-13 -0.00620847 22.2916 -9.88446e-07 4.63217e-06 49.5731 73.0622 -68.2779 12.9945 -0.242716 -4.98039 89.7879 10.9632 -85.3118 -5.34813 -1.25947e-06 -3.79883e-06 -106.25 51.8699 36.9853 -24.3289 0.000322201 -8.65921e-06 0.000903177 -0.000161809 -14.8385 -22.2915 -0.000108084 -4.47941e-06 26.1211 47.8522 -50.0061 -2.19248 -6.46944 -1.22533e-07 -177.614 -3.17627 -5.41492 39.0811 -6.73843e-06 -1.23785e-05 -4.67436e-13 -3.71028e-06 46.9419 40.9854 -6.48686e-06 -1.26872e-05 -9.58541 5.70771 -47.7851 11.7543 -2.30145e-07 3.05095e-06 -0.550224 -0.827147 -19.6458 -2.19251 6.46944 -1.45247e-06 -176.184 -1.75181 167.555 -39.0811 -8.88178e-16 0 -1.95829e-15 3.97569e-16 14.0469 -40.9854 7.72618e-06 5.99936e-06 6.20267 5.40801 -50.9526 -11.7543 -5.6619e-06 -5.58687e-06 -0.637834 -3.8227 -17.1311 
0 0 -72 0 0 -0 -0.626577 92.5887 2.26011 90.2712 0.764566 1.86589 15.7357 5.1072e-06 -5.51765e-07 69.6108 85.6786 -70.5915 8.98455 -0.406207 -4.3199e-07 2.30047 -1.4473 0.581956 16.3773 -1.3905e-06 -6.99897e-07 -5.45094 1.12685 -0.282151 6.45672 -1.25837e-06 -1.02172e-07 -12.0116 2.02019 -2.018 12.9942 -0.242716 4.98039 -89.787 9.84905 -87.7556 5.34809 -7.22636e-06 -6.2814e-07 -85.7961 -3.18579 22.3648 24.3286 1.87007e-05 4.90208e-06 -2.32567e-05 3.88265e-07 -0.956452 22.2916 -9.88446e-07 4.63217e-06 51.0161 73.9472 -69.3986 12.9945 -0.242716 -4.98039 89.7635 10.9135 -85.172 -5.34813 -1.25947e-06 -3.79883e-06 -106.118 51.6337 37.226 -24.3289 0.000322201 -8.65921e-06 0.00090244 -0.000162995 -14.9773 -22.2915 -0.000108084 -4.47941e-06 26.0516 47.8684 -50.1159 -2.19248 -6.46944 -1.22534e-07 -178.293 -2.77519 0.188499 39.0811 -6.73843e-06 -1.23785e-05 -5.74895e-13 -3.31581e-06 43.307 40.9854 -6.48686e-06 -1.26872e-05 -10.7872 8.43941 -43.8249 11.7543 -2.30145e-07 3.05095e-06 -0.137391 0.382024 -18.3501 -2.19251 6.46944 -1.45247e-06 -176.287 -2.74079 164.234 -39.0811 0 7.10543e-15 1.64067e-15 0 15.9063 -40.9854 7.72618e-06 5.99936e-06 5.16895 4.55453 -50.1573 -11.7543 -5.6619e-06 -5.58687e-06 -0.637485 -3.84111 -17.1872 
0 0 -76 0 0 -0 -0.484263 91.897 2.12054 89.9438 1.00742 1.6812 15.7357 5.1072e-06 -5.51765e-07 66.4012 85.7844 -67.3635 8.98455 -0.406207 -4.3199e-07 2.41662 -1.62571 0.855196 16.3773 -1.3905e-06 -6.99897e-07 -5.61795 1.08474 0.159671 6.45672 -1.25837e-06 -1.02172e-07 -11.9946 2.0419 -1.78903 12.9942 -0.242716 4.98039 -89.8074 9.77832 -87.6403 5.34809 -7.22636e-06 -6.2814e-07 -86.0608 -3.07095 22.232 24.3286 1.87007e-05 4.90208e-06 -2.20449e-05 3.48848e-07 -0.906598 22.2916 -9.88446e-07 4.63217e-06 53.392 74.1933 -71.4224 12.9945 -0.242716 -4.98039 89.7482 10.9332 -85.089 -5.34813 -1.25947e-06 -3.79883e-06 -105.516 51.2128 37.0805 -24.3289 0.000322201 -8.65921e-06 0.000901771 -0.000164138 -15.0955 -22.2915 -0.000108084 -4.47941e-06 26.1905 47.8189 -50.6235 -2.19248 -6.46944 -1.22534e-07 -179.013 -2.57229 4.14973 39.0811 -6.73843e-06 -1.23785e-05 -2.28752e-13 -2.74077e-06 37.9776 40.9854 -6.48686e-06 -1.26872e-05 -10.1375 8.61479 -42.4819 11.7543 -2.30145e-07 3.05095e-06 -0.21634 1.0946 -20.3145 -2.19251 6.46944 -1.45247e-06 -176.428 -3.3544 160.775 -39.0811 8.88178e-16 -1.42109e-14 6.43445e-16 7.95139e-16 16.7037 -40.9854 7.72618e-06 5.99936e-06 4.03121 4.02015 -49.5051 -11.7543 -5.6619e-06 -5.58687e-06 -0.673551 -4.0451 -17.2389 
0 0 -80 0 0 -0 -0.394644 91.1258 1.33968 89.5864 1.45764 1.04929 15.7357 5.1072e-06 -5.51765e-07 65.4093 85.5194 -66.6183 8.98455 -0.406207 -4.3199e-07 2.66904 -1.78185 1.09674 16.3773 -1.3905e-06 -6.99897e-07 -6.2657 0.861951 0.804072 6.45672 -1.25837e-06 -1.02172e-07 -12.4011 1.87611 -1.42128 12.9942 -0.242716 4.98039 -89.8024 9.89129 -87.6659 5.34809 -7.22636e-06 -6.2814e-07 -86.2278 -2.58008 21.4098 24.3286 1.87007e-05 4.90208e-06 -1.99518e-16 -1.08139e-13 -0.000388318 22.2916 -9.88446e-07 4.63217e-06 55.4012 73.5972 -73.1961 12.9945 -0.242716 -4.98039 89.7638 11.0223 -85.1824 -5.34813 -1.25947e-06 -3.79883e-06 -104.704 50.9235 36.5009 -24.3289 0.000322201 -8.65921e-06 0.000902529 -0.000162542 -14.9878 -22.2915 -0.000108084 -4.47941e-06 26.4893 47.4955 -51.3494 -2.19248 -6.46944 -1.22534e-07 -179.681 -3.12705 5.45176 39.0811 -6.73843e-06 -1.23785e-05 -5.61166e-13 -2.22667e-06 33.227 40.9854 -6.48686e-06 -1.26872e-05 -5.22402 8.44025 -46.1334 11.7543 -2.30145e-07 3.05095e-06 -1.14883 2.18504 -31.2438 -2.19251 6.46944 -1.45247e-06 -176.59 -3.4128 157.031 -39.0811 -8.88178e-16 -7.10543e-15 6.224e-16 0 16.6341 -40.9854 7.72618e-06 5.99936e-06 2.81101 3.77523 -49.6946 -11.7543 -5.6619e-06 -5.58687e-06 -0.615377 -4.04572 -18.1334 
0 0 -84 0 0 -0 -0.35122 90.3699 -0.0421664 89.2848 2.04748 0.0282831 15.7357 5.1072e-06 -5.51765e-07 68.2503 84.8915 -69.9849 8.98455 -0.406207 -4.3199e-07 2.98884 -1.76796 1.17444 16.3773 -1.3905e-06 -6.99897e-07 -7.34385 0.389006 1.68645 6.45672 -1.25837e-06 -1.02172e-07 -13.2394 1.45114 -0.88461 12.9942 -0.242716 4.98039 -89.7603 10.0542 -87.909 5.34809 -7.22636e-06 -6.2814e-07 -86.199 -2.09833 21.8073 24.3286 1.87007e-05 4.90208e-06 -4.51112e-05 1.46197e-06 -1.85619 22.2916 -9.88446e-07 4.63217e-06 53.1306 73.8061 -70.7492 12.9945 -0.242716 -4.98039 89.8072 11.2062 -85.4342 -5.34813 -1.25947e-06 -3.79883e-06 -103.929 50.861 35.5926 -24.3289 0.000322201 -8.65921e-06 0.000873561 -0.000159485 -14.7425 -22.2915 -0.000108084 -4.47941e-06 26.8362 47.0723 -52.0244 -2.19248 -6.46944 -1.22534e-07 179.46 -3.9234 3.34251 39.0811 -6.73843e-06 -1.23785e-05 9.47752e-07 -1.5126e-06 32.07 40.9854 -6.48686e-06 -1.26872e-05 2.68747 7.3066 -55.0439 11.7543 -2.30145e-07 3.05095e-06 -2.56811 0.485217 -37.5847 -2.19251 6.46944 -1.45247e-06 -176.85 -2.84361 153.342 -39.0811 -1.77636e-15 -7.10543e-15 -2.75532e-17 1.59028e-15 15.4679 -40.9854 7.72618e-06 5.99936e-06 1.05605 3.55698 -51.6277 -11.7543 -5.6619e-06 -5.58687e-06 -0.536061 -4.18551 -19.8216 
